<svg width="25" height="24" viewBox="0 0 25 24" fill="none" xmlns="http://www.w3.org/2000/svg">
<path d="M12.7449 9.81818V14.4655H19.3349C19.0455 15.96 18.1771 17.2255 16.8747 18.0764L20.8488 21.0982C23.1642 19.0038 24.5001 15.9274 24.5001 12.2728C24.5001 11.4219 24.4222 10.6037 24.2774 9.81831L12.7449 9.81818Z" fill="#4285F4"/>
<path d="M5.88241 14.284L4.98611 14.9564L1.81348 17.3782C3.82834 21.2945 7.95795 24 12.7446 24C16.0507 24 18.8225 22.9309 20.8485 21.0982L16.8745 18.0764C15.7836 18.7963 14.3921 19.2328 12.7446 19.2328C9.56092 19.2328 6.85596 17.1273 5.88742 14.2909L5.88241 14.284Z" fill="#34A853"/>
<path d="M1.81346 6.62183C0.97862 8.23631 0.5 10.0581 0.5 11.9999C0.5 13.9417 0.97862 15.7636 1.81346 17.378C1.81346 17.3889 5.8878 14.2799 5.8878 14.2799C5.6429 13.5599 5.49814 12.7963 5.49814 11.9998C5.49814 11.2033 5.6429 10.4398 5.8878 9.71976L1.81346 6.62183Z" fill="#FBBC05"/>
<path d="M12.7449 4.77818C14.5483 4.77818 16.1512 5.38907 17.4314 6.56727L20.9379 3.13095C18.8117 1.18917 16.0511 0 12.7449 0C7.95821 0 3.82834 2.69454 1.81348 6.62183L5.88768 9.72001C6.8561 6.88362 9.56117 4.77818 12.7449 4.77818Z" fill="#EA4335"/>
</svg>
