<svg width="24" height="24" viewBox="0 0 24 24" fill="none" xmlns="http://www.w3.org/2000/svg">
<path d="M5.45003 13.8599L6.09256 14.2468L6.09424 14.244L5.45003 13.8599ZM4.30003 15.7699L3.6575 15.3831L3.65739 15.3833L4.30003 15.7699ZM5.38003 18.6999L5.13958 19.4104L5.14236 19.4113L5.38003 18.6999ZM18.65 18.6999L18.4146 17.9878L18.4124 17.9886L18.65 18.6999ZM19.73 15.7699L20.3731 15.3841L20.3726 15.3831L19.73 15.7699ZM18.58 13.8599L17.9303 14.2348L17.9375 14.2468L18.58 13.8599ZM13.87 3.19994L13.6609 3.9202C13.9354 3.99988 14.2312 3.91667 14.4239 3.70562C14.6166 3.49457 14.6726 3.19236 14.5683 2.92629L13.87 3.19994ZM12.91 2.99994L12.817 3.74415L12.8198 3.74449L12.91 2.99994ZM10.17 3.19994L9.47173 2.92629C9.36745 3.1924 9.42348 3.49466 9.61623 3.70571C9.80897 3.91676 10.1049 3.99991 10.3794 3.92013L10.17 3.19994ZM12.02 2.15994C8.29581 2.15994 5.27003 5.18573 5.27003 8.90994H6.77003C6.77003 6.01416 9.12424 3.65994 12.02 3.65994V2.15994ZM5.27003 8.90994V11.7999H6.77003V8.90994H5.27003ZM5.27003 11.7999C5.27003 12.0146 5.22145 12.3286 5.1286 12.6631C5.03582 12.9973 4.91553 13.2919 4.80582 13.4759L6.09424 14.244C6.29453 13.908 6.45923 13.4776 6.57395 13.0643C6.6886 12.6513 6.77003 12.1953 6.77003 11.7999H5.27003ZM4.8075 13.4731L3.6575 15.3831L4.94255 16.1568L6.09255 14.2468L4.8075 13.4731ZM3.65739 15.3833C3.19635 16.1495 3.10015 17.0091 3.38295 17.7729C3.66541 18.5357 4.29717 19.1252 5.13958 19.4104L5.62047 17.9895C5.16288 17.8347 4.89964 17.5492 4.78961 17.252C4.6799 16.9557 4.6937 16.5704 4.94267 16.1566L3.65739 15.3833ZM5.14236 19.4113C9.60661 20.9028 14.4234 20.9028 18.8877 19.4113L18.4124 17.9886C14.2566 19.3771 9.77344 19.3771 5.61769 17.9886L5.14236 19.4113ZM18.8854 19.412C20.5545 18.8603 21.2789 16.8937 20.3731 15.3841L19.0869 16.1558C19.5012 16.8462 19.1656 17.7396 18.4146 17.9878L18.8854 19.412ZM20.3726 15.3831L19.2226 13.4731L17.9375 14.2468L19.0875 16.1568L20.3726 15.3831ZM19.2297 13.4851C19.1218 13.2981 19.0028 13.0005 18.9108 12.6653C18.8187 12.3293 18.77 12.0148 18.77 11.7999H17.27C17.27 12.1951 17.3514 12.6506 17.4642 13.0621C17.5773 13.4743 17.7383 13.9018 17.9304 14.2347L19.2297 13.4851ZM18.77 11.7999V8.90994H17.27V11.7999H18.77ZM18.77 8.90994C18.77 5.19573 15.7342 2.15994 12.02 2.15994V3.65994C14.9058 3.65994 17.27 6.02416 17.27 8.90994H18.77ZM14.0791 2.47968C13.7365 2.38022 13.3765 2.301 13.0003 2.25539L12.8198 3.74449C13.1035 3.77889 13.3835 3.83966 13.6609 3.9202L14.0791 2.47968ZM13.0031 2.25573C11.9475 2.12378 10.9242 2.19965 9.96067 2.47975L10.3794 3.92013C11.1358 3.70023 11.9526 3.6361 12.817 3.74415L13.0031 2.25573ZM10.8683 3.4736C11.0489 3.01288 11.4972 2.68994 12.02 2.68994V1.18994C10.8629 1.18994 9.87118 1.90701 9.47173 2.92629L10.8683 3.4736ZM12.02 2.68994C12.5429 2.68994 12.9912 3.01288 13.1717 3.4736L14.5683 2.92629C14.1689 1.90701 13.1772 1.18994 12.02 1.18994V2.68994ZM14.27 19.0599C14.27 20.2957 13.2558 21.3099 12.02 21.3099V22.8099C14.0842 22.8099 15.77 21.1242 15.77 19.0599H14.27ZM12.02 21.3099C11.4075 21.3099 10.8359 21.0551 10.4304 20.6496L9.3697 21.7103C10.0442 22.3847 10.9925 22.8099 12.02 22.8099V21.3099ZM10.4304 20.6496C10.0248 20.2441 9.77003 19.6725 9.77003 19.0599H8.27003C8.27003 20.0874 8.69522 21.0358 9.3697 21.7103L10.4304 20.6496Z" fill="#292D32"/>
</svg>
