<svg width="25" height="24" viewBox="0 0 25 24" fill="none" xmlns="http://www.w3.org/2000/svg">
<path fill-rule="evenodd" clip-rule="evenodd" d="M8.6304 22C8.21762 22 7.82588 21.968 7.45718 21.905L7.23877 21.864C4.86329 21.371 3.48268 19.555 3.48268 16.791V7.209C3.48268 6.875 3.50272 6.555 3.54279 6.249C3.89245 3.564 5.74094 2 8.6304 2H16.37C19.572 2 21.4867 3.92 21.5167 7.132V7.209V16.791C21.5167 20.048 19.5971 22 16.37 22H8.6304ZM8.6304 3.457C6.16975 3.457 4.9224 4.72 4.9224 7.209V16.791C4.9224 19.28 6.16975 20.543 8.6304 20.543H16.361C18.8206 20.543 20.06 19.28 20.06 16.791V7.209C20.06 4.72 18.8206 3.457 16.361 3.457H8.6304ZM16.8138 16.234C16.8138 15.834 16.4942 15.51 16.0995 15.51H8.87486C8.48011 15.51 8.15951 15.834 8.15951 16.234C8.15951 16.634 8.48011 16.958 8.87486 16.958H16.0995C16.4942 16.958 16.8138 16.634 16.8138 16.234ZM16.0995 11.271C16.375 11.241 16.6445 11.373 16.7918 11.61C16.9391 11.849 16.9391 12.151 16.7918 12.39C16.6445 12.627 16.375 12.759 16.0995 12.729H8.87486C8.50816 12.687 8.23064 12.374 8.23064 12C8.23064 11.626 8.50816 11.312 8.87486 11.271H16.0995ZM12.2763 7.771C12.2763 7.397 11.9988 7.083 11.6321 7.042H8.88387C8.51618 7.083 8.23866 7.397 8.23866 7.771C8.23866 8.144 8.51618 8.458 8.88387 8.499H11.6321C11.9988 8.458 12.2763 8.144 12.2763 7.771Z" fill="#6A6A8B"/>
</svg>
